<mxfile host="app.diagrams.net" modified="2024-03-20T06:46:48.130Z" agent="Mozilla/5.0 (Windows NT 10.0; Win64; x64) AppleWebKit/537.36 (KHTML, like Gecko) Chrome/122.0.0.0 Safari/537.36" etag="i4JepVqNnHm_zXN8AwzZ" version="24.0.7" type="github">
  <diagram name="第 1 页" id="CS2IbwWVqNaP3owc_bjf">
    <mxGraphModel dx="910" dy="490" grid="0" gridSize="10" guides="1" tooltips="1" connect="1" arrows="1" fold="1" page="1" pageScale="1" pageWidth="827" pageHeight="1169" math="0" shadow="0">
      <root>
        <mxCell id="0" />
        <mxCell id="1" parent="0" />
        <mxCell id="1U_D2ihvRAuSe3zVDCNh-8" style="rounded=0;orthogonalLoop=1;jettySize=auto;html=1;exitX=1;exitY=0.5;exitDx=0;exitDy=0;entryX=0;entryY=0.5;entryDx=0;entryDy=0;" edge="1" parent="1" source="1U_D2ihvRAuSe3zVDCNh-1" target="1U_D2ihvRAuSe3zVDCNh-3">
          <mxGeometry relative="1" as="geometry" />
        </mxCell>
        <mxCell id="1U_D2ihvRAuSe3zVDCNh-9" style="rounded=0;orthogonalLoop=1;jettySize=auto;html=1;exitX=1;exitY=0.5;exitDx=0;exitDy=0;entryX=0;entryY=0.5;entryDx=0;entryDy=0;" edge="1" parent="1" source="1U_D2ihvRAuSe3zVDCNh-1" target="1U_D2ihvRAuSe3zVDCNh-4">
          <mxGeometry relative="1" as="geometry" />
        </mxCell>
        <mxCell id="1U_D2ihvRAuSe3zVDCNh-11" style="rounded=0;orthogonalLoop=1;jettySize=auto;html=1;exitX=1;exitY=0.5;exitDx=0;exitDy=0;entryX=0;entryY=0.5;entryDx=0;entryDy=0;" edge="1" parent="1" source="1U_D2ihvRAuSe3zVDCNh-1" target="1U_D2ihvRAuSe3zVDCNh-5">
          <mxGeometry relative="1" as="geometry" />
        </mxCell>
        <mxCell id="1U_D2ihvRAuSe3zVDCNh-1" value="大文件" style="rounded=0;whiteSpace=wrap;html=1;fillColor=#dae8fc;strokeColor=#6c8ebf;" vertex="1" parent="1">
          <mxGeometry x="80" y="160" width="90" height="220" as="geometry" />
        </mxCell>
        <mxCell id="1U_D2ihvRAuSe3zVDCNh-2" value="" style="rounded=0;whiteSpace=wrap;html=1;fillColor=#d5e8d4;strokeColor=#82b366;" vertex="1" parent="1">
          <mxGeometry x="220" y="130" width="70" height="60" as="geometry" />
        </mxCell>
        <mxCell id="1U_D2ihvRAuSe3zVDCNh-16" style="rounded=0;orthogonalLoop=1;jettySize=auto;html=1;exitX=1;exitY=0.5;exitDx=0;exitDy=0;entryX=0;entryY=0.5;entryDx=0;entryDy=0;" edge="1" parent="1" source="1U_D2ihvRAuSe3zVDCNh-3" target="1U_D2ihvRAuSe3zVDCNh-13">
          <mxGeometry relative="1" as="geometry" />
        </mxCell>
        <mxCell id="1U_D2ihvRAuSe3zVDCNh-17" style="rounded=0;orthogonalLoop=1;jettySize=auto;html=1;exitX=1;exitY=0.5;exitDx=0;exitDy=0;entryX=0;entryY=0.5;entryDx=0;entryDy=0;" edge="1" parent="1" source="1U_D2ihvRAuSe3zVDCNh-3" target="1U_D2ihvRAuSe3zVDCNh-14">
          <mxGeometry relative="1" as="geometry" />
        </mxCell>
        <mxCell id="1U_D2ihvRAuSe3zVDCNh-3" value="" style="rounded=0;whiteSpace=wrap;html=1;fillColor=#dae8fc;strokeColor=#6c8ebf;" vertex="1" parent="1">
          <mxGeometry x="220" y="210" width="70" height="50" as="geometry" />
        </mxCell>
        <mxCell id="1U_D2ihvRAuSe3zVDCNh-4" value="" style="rounded=0;whiteSpace=wrap;html=1;fillColor=#d5e8d4;strokeColor=#82b366;" vertex="1" parent="1">
          <mxGeometry x="220" y="270" width="70" height="50" as="geometry" />
        </mxCell>
        <mxCell id="1U_D2ihvRAuSe3zVDCNh-5" value="" style="rounded=0;whiteSpace=wrap;html=1;fillColor=#d5e8d4;strokeColor=#82b366;" vertex="1" parent="1">
          <mxGeometry x="220" y="340" width="70" height="50" as="geometry" />
        </mxCell>
        <mxCell id="1U_D2ihvRAuSe3zVDCNh-6" value="" style="endArrow=classic;html=1;rounded=0;exitX=1;exitY=0.5;exitDx=0;exitDy=0;entryX=0;entryY=0.5;entryDx=0;entryDy=0;" edge="1" parent="1" source="1U_D2ihvRAuSe3zVDCNh-1" target="1U_D2ihvRAuSe3zVDCNh-2">
          <mxGeometry width="50" height="50" relative="1" as="geometry">
            <mxPoint x="170" y="210" as="sourcePoint" />
            <mxPoint x="220" y="160" as="targetPoint" />
          </mxGeometry>
        </mxCell>
        <mxCell id="1U_D2ihvRAuSe3zVDCNh-12" value="" style="rounded=0;whiteSpace=wrap;html=1;fillColor=#d5e8d4;strokeColor=#82b366;" vertex="1" parent="1">
          <mxGeometry x="340" y="180" width="50" height="30" as="geometry" />
        </mxCell>
        <mxCell id="1U_D2ihvRAuSe3zVDCNh-13" value="" style="rounded=0;whiteSpace=wrap;html=1;fillColor=#d5e8d4;strokeColor=#82b366;" vertex="1" parent="1">
          <mxGeometry x="340" y="220" width="50" height="30" as="geometry" />
        </mxCell>
        <mxCell id="1U_D2ihvRAuSe3zVDCNh-14" value="" style="rounded=0;whiteSpace=wrap;html=1;fillColor=#d5e8d4;strokeColor=#82b366;" vertex="1" parent="1">
          <mxGeometry x="340" y="270" width="50" height="30" as="geometry" />
        </mxCell>
        <mxCell id="1U_D2ihvRAuSe3zVDCNh-15" value="" style="endArrow=classic;html=1;rounded=0;exitX=1;exitY=0.5;exitDx=0;exitDy=0;entryX=0;entryY=0.5;entryDx=0;entryDy=0;" edge="1" parent="1" source="1U_D2ihvRAuSe3zVDCNh-3" target="1U_D2ihvRAuSe3zVDCNh-12">
          <mxGeometry width="50" height="50" relative="1" as="geometry">
            <mxPoint x="300" y="230" as="sourcePoint" />
            <mxPoint x="350" y="180" as="targetPoint" />
          </mxGeometry>
        </mxCell>
        <mxCell id="1U_D2ihvRAuSe3zVDCNh-19" value="哈希" style="text;html=1;align=center;verticalAlign=middle;whiteSpace=wrap;rounded=0;" vertex="1" parent="1">
          <mxGeometry x="170" y="170" width="60" height="30" as="geometry" />
        </mxCell>
        <mxCell id="1U_D2ihvRAuSe3zVDCNh-20" value="继续哈希" style="text;html=1;align=center;verticalAlign=middle;whiteSpace=wrap;rounded=0;" vertex="1" parent="1">
          <mxGeometry x="280" y="190" width="60" height="30" as="geometry" />
        </mxCell>
      </root>
    </mxGraphModel>
  </diagram>
</mxfile>
